<svg xmlns="http://www.w3.org/2000/svg" width="280" height="280" viewBox="70 70 280 280">
<defs>
<linearGradient id="g" x1="0%" y1="0%" x2="100%" y2="100%">
<stop offset="0%" stop-color="#ffae1c"/>
<stop offset="33%" stop-color="#5916eb"/>
<stop offset="66%" stop-color="#00b996"/>
<stop offset="100%" stop-color="#97019a"/>
</linearGradient>

<filter id="f">
<feGaussianBlur stdDeviation="8" result="b"/>
<feMerge>
<feMergeNode in="b"/>
<feMergeNode in="SourceGraphic"/>
</feMerge>
</filter>
</defs>

<path d="M80 210Q120 100 210 120Q300 140 340 210Q300 280 210 300Q120 320 80 210" fill="none" stroke="url(#g)" stroke-width="8" opacity=".4"/>
<path d="M100 210Q140 130 210 145Q280 160 320 210Q280 260 210 275Q140 290 100 210" fill="none" stroke="url(#g)" stroke-width="4" opacity=".7"/>

<g transform="translate(110 130) rotate(-8)" filter="url(#f)">
<rect width="200" height="140" rx="28" fill="#131320" stroke="url(#g)" stroke-width="4"/>
<rect x="25" y="25" width="30" height="25" rx="8" fill="#ffae1c"/>
<rect x="65" y="25" width="30" height="25" rx="8" fill="#5916eb"/>
<rect x="105" y="25" width="30" height="25" rx="8" fill="#00b996"/>
<rect x="145" y="25" width="30" height="25" rx="8" fill="#97019a"/>
<rect x="35" y="60" width="30" height="25" rx="8" fill="#5916eb"/>
<rect x="75" y="60" width="30" height="25" rx="8" fill="#00b996"/>
<rect x="115" y="60" width="30" height="25" rx="8" fill="#97019a"/>
<rect x="50" y="100" width="100" height="20" rx="10" fill="url(#g)"/>
</g>

<circle cx="90" cy="95" r="8" fill="#ffae1c"/>
<circle cx="330" cy="115" r="10" fill="#5916eb"/>
<circle cx="315" cy="300" r="7" fill="#00b996"/>
<circle cx="95" cy="290" r="9" fill="#97019a"/>
</svg>