<svg xmlns="http://www.w3.org/2000/svg" viewBox="0 0 146.01 55.22" color="black">
    <rect x="2.16" y="2.16" width="141.69" height="50.9" rx="7.67" ry="7.67" fill="none" stroke="currentColor"
        stroke-width="4.32" stroke-linecap="round" stroke-linejoin="round" />

    <path
        d="M10.55,44.77V10.46c0-2.38,2.87-3.57,4.55-1.89l17.16,17.16c1.04,1.04,1.04,2.73,0,3.77l-17.16,17.16c-1.68,1.68-4.55.49-4.55-1.89Z"
        fill="currentColor" />

    <path
        d="M136.09,10.46v34.31c0,2.38-2.87,3.57-4.55,1.89l-17.16-17.16c-1.04-1.04-1.04-2.73,0-3.77l17.16-17.16c1.68-1.68,4.55-.49,4.55,1.89Z"
        fill="currentColor" />

    <circle cx="72.86" cy="29.19" r="17.14" fill="none" stroke="currentColor" stroke-width="4.29" stroke-linecap="round"
        stroke-linejoin="round" />

    <line x1="94.29" y1="50.62" x2="84.97" y2="41.3" stroke="currentColor" stroke-width="4.29" stroke-linecap="round"
        stroke-linejoin="round" />

    <line x1="66.43" y1="29.19" x2="79.29" y2="29.19" stroke="currentColor" stroke-width="4.29" stroke-linecap="round"
        stroke-linejoin="round" />
</svg>