<svg xmlns="http://www.w3.org/2000/svg" viewBox="0 0 127.72 25.16" color="black">
    <g>
        <path fill="currentColor"
            d="M126.8,22.57c-1.04,2.75-3.54,2.57-8.22,2.59-3.65,0-7.25,0-10.98,0-19.1,0-44.68,0-63.76,0-2.16-.07-6.75.2-5.84-.44C49.63,20.99,103.11,5.94,120.98.68c1.81-.44,3.96-1.27,5.25-.04,1.22.86,1.47,5.83,1.49,9.08-.04,4.99.2,9.42-.88,12.75l-.04.1Z" />

        <path fill="currentColor"
            d="M28.48,12.58H4.07c-2.25,0-4.07,1.21-4.07,2.69s1.82,2.69,4.07,2.69h24.41c2.25,0,4.07-1.21,4.07-2.69s-1.82-2.69-4.07-2.69Z" />
    </g>
</svg>