<svg xmlns="http://www.w3.org/2000/svg" viewBox="0 0 131.33 35.32" fill="currentColor" color="currentColor">
    <path
        d="M113.67,0c1.01,0,1.83.82,1.83,1.83v14.01h14.01c1.01,0,1.83.82,1.83,1.83s-.82,1.83-1.83,1.83h-14.01v14.01c0,1.01-.82,1.83-1.83,1.83s-1.83-.82-1.83-1.83v-14.01h-14.01c-1.01,0-1.83-.82-1.83-1.83s.82-1.83,1.83-1.83h14.01V1.83c0-1.01.82-1.83,1.83-1.83Z" />

    <path
        d="M88.93,28.01c-1.04,2.75-3.54,2.57-8.22,2.59-3.65,0-7.25,0-10.98,0-19.1,0-44.68,0-63.76,0-2.16-.07-6.75.2-5.84-.44,11.64-3.73,65.12-18.79,82.99-24.05,1.81-.44,3.96-1.27,5.25-.04,1.22.86,1.47,5.83,1.49,9.08-.04,4.99.2,9.42-.88,12.75l-.04.1Z" />
</svg>