<svg xmlns="http://www.w3.org/2000/svg" viewBox="0 0 158.3 158.3" fill="currentColor" stroke="currentColor"
    color="currentColor">
    <rect x="4.15" y="4.15" width="150.01" height="150.01" rx="17.17" ry="17.17" fill="none" stroke-width="8.3"
        stroke-miterlimit="10" />

    <path
        d="M40.95,94.85l-.27-8.96h27.86c1.74,0,3.17-1.43,3.17-3.17v-7.13c0-1.74-1.43-3.17-3.17-3.17h-27.86s.27-8.99.27-8.99c0-4.24-5.12-6.35-8.12-3.35l-15.71,15.71c-1.87,1.87-1.87,4.87,0,6.73l15.71,15.71c2.99,2.99,8.12,.86,8.12-3.38ZM119.12,63.45l.27,8.96h-27.86c-1.74,0-3.17,1.43-3.17,3.17v7.13c0,1.74,1.43,3.17,3.17,3.17h27.86s-.27,8.99-.27,8.99c0,4.24,5.12,6.35,8.12,3.35l15.71-15.71c1.87-1.87,1.87-4.87,0-6.73l-15.71-15.71c-2.99-2.99-8.12-.86-8.12,3.38ZM95.84,118.57l-8.96.27v-27.86c0-1.74-1.43-3.17-3.17-3.17h-7.13c-1.74,0-3.17,1.43-3.17,3.17v27.86s-8.99-.27-8.99-.27c-4.24,0-6.35,5.12-3.35,8.12l15.71,15.71c1.87,1.87,4.87,1.87,6.73,0l15.71-15.71c2.99-2.99.86-8.12-3.38-8.12ZM64.44,39.74l8.96-.27v27.86c0,1.74,1.43,3.17,3.17,3.17h7.13c1.74,0,3.17-1.43,3.17-3.17v-27.86s8.99.27,8.99.27c4.24,0,6.35-5.12,3.35-8.12l-15.71-15.71c-1.87-1.87-4.87-1.87-6.73,0l-15.71,15.71c-2.99,2.99-.86,8.12,3.38,8.12Z" />
</svg>