<svg xmlns="http://www.w3.org/2000/svg" viewBox="0 0 103.88 79.27" fill="currentColor" stroke="currentColor"
    color="currentColor">

    <path
        d="M89.36,76.56l-19.8-23.16c4.42-4.4,7.36-10.33,7.89-17.03,1.17-14.88-9.99-27.94-24.88-29.11-7.21-.56-14.21,1.71-19.71,6.41-5.5,4.7-8.83,11.26-9.4,18.47-1.17,14.88,9.99,27.94,24.88,29.11,6.69.52,13.01-1.46,18.05-5.14l19.8,23.16,3.17-2.71ZM48.67,57.1c-12.59-.99-22.04-12.03-21.05-24.63.48-6.1,3.3-11.65,7.95-15.63,4.65-3.97,10.57-5.9,16.68-5.42,12.59.99,22.04,12.03,21.05,24.63-.99,12.59-12.03,22.04-24.63,21.05ZM52.6,32.24l8.33.23-.12,4.16-8.33-.23-.23,8.33-4.16-.12.23-8.33-8.33-.23.12-4.16,8.33.23.23-8.33,4.16.12-.23,8.33Z" />

    <path
        d="M74.56,68.86H11.47c-5.44,0-9.84-4.44-9.84-9.91V11.54C1.63,6.07,6.04,1.63,11.47,1.63h80.94c5.44,0,9.84,4.44,9.84,9.91v47.41c0,5.47-4.41,9.91-9.84,9.91h-6.63"
        fill="none" stroke-width="3.26" stroke-miterlimit="10" />
</svg>