<svg xmlns="http://www.w3.org/2000/svg" viewBox="0 0 164.71 92.84" fill="none" stroke="currentColor"
  color="currentColor">
  <path
    d="M43.76,56.53c-3.32,2.57-6.65,8.46-9.24,13.61-2.32,5.27-9.3,16.79-5.89,20.11,1.74,1.42,4.69,1.47,7.28,1.65,20.35.87,75.36.57,95.72-.33,7.35-.26,10.51-1.61,7.52-9.81-2.05-5.84-6.29-14.64-10.81-20.5-6.11-8.6-15.18-9.34-24.62-9.37-10.68-.18-24.84-.17-36.71.17-7.79.3-18.5.09-23.11,4.37l-.12.1Z"
    stroke-width="0.82" fill="currentColor" stroke="currentColor" />

  <path d="M4.5,37.9c6.66,3.61,16.45,8.92,23.2,12.58" stroke-width="9" stroke-linecap="round" stroke-linejoin="round" />

  <path d="M38.77,15.13l13.88,21.04" stroke-width="9" stroke-linecap="round" stroke-linejoin="round" />

  <path d="M81.15,4.5c.08,8.11.18,19.54.26,27.54" stroke-width="9" stroke-linecap="round" stroke-linejoin="round" />

  <path d="M124.86,13.61c-3.89,6.18-9.71,15.42-13.66,21.69" stroke-width="9" stroke-linecap="round"
    stroke-linejoin="round" />

  <path d="M160.21,36.16c-6.87,3.66-16.9,8.99-23.86,12.7" stroke-width="9" stroke-linecap="round"
    stroke-linejoin="round" />
</svg>